<svg width="20" height="14" viewBox="0 0 20 14" fill="none" xmlns="http://www.w3.org/2000/svg">
<path d="M12.2848 7.04936C12.2848 6.98103 12.2773 6.92029 12.2698 6.85196H11.8795C11.887 6.9127 11.8945 6.98103 11.8945 7.04936C11.8945 7.07213 11.8945 7.09491 11.8945 7.11769C11.8945 7.27712 11.872 7.42896 11.8345 7.57322C11.8195 7.64154 11.797 7.70228 11.7669 7.77061C11.5118 8.39317 10.9039 8.84111 10.1984 8.84111C9.49289 8.84111 8.88497 8.40076 8.62979 7.77061C8.60728 7.70987 8.58476 7.64154 8.56225 7.57322C8.52472 7.42896 8.50221 7.27712 8.50221 7.11769C8.50221 7.09491 8.50221 7.07213 8.50221 7.04936C8.50221 6.98103 8.50971 6.92029 8.51722 6.85196H8.12695C8.11944 6.92029 8.11194 6.98103 8.11194 7.04936C8.11194 7.07213 8.11194 7.09491 8.11194 7.11769C8.11194 7.16324 8.11194 7.2012 8.11944 7.24675C8.11944 7.2923 8.12695 7.33786 8.13445 7.37582C8.14196 7.44415 8.15697 7.50489 8.16447 7.57322C8.17949 7.64154 8.1945 7.70228 8.21701 7.77061C8.4872 8.61334 9.27524 9.22831 10.1984 9.22831C11.1215 9.22831 11.9095 8.61334 12.1797 7.77061C12.2022 7.70987 12.2173 7.64154 12.2323 7.57322C12.2473 7.51248 12.2548 7.44415 12.2623 7.37582C12.2698 7.33027 12.2698 7.2923 12.2773 7.24675C12.2773 7.2012 12.2848 7.16324 12.2848 7.11769C12.2848 7.09491 12.2848 7.07213 12.2848 7.04936Z" fill="black"/>
<path d="M10.1984 9.42569C9.20769 9.42569 8.3371 8.78795 8.02938 7.83133C8.00687 7.763 7.98435 7.68708 7.96934 7.61875C7.95433 7.55042 7.93932 7.4745 7.93182 7.40617C7.92431 7.36062 7.92431 7.31507 7.91681 7.26192C7.91681 7.21637 7.9093 7.17081 7.9093 7.12526C7.9093 7.09489 7.9093 7.07212 7.9093 7.04934C7.9093 6.98101 7.91681 6.90509 7.92431 6.83676L7.94683 6.66214H8.73487L8.69734 6.8899C8.68984 6.94305 8.68233 7.00379 8.68233 7.06452C8.68233 7.0873 8.68233 7.10249 8.68233 7.12526C8.68233 7.26192 8.69734 7.39858 8.73487 7.52765C8.74988 7.58838 8.7724 7.64153 8.79491 7.70227C9.02757 8.27927 9.57545 8.65129 10.1834 8.65129C10.7988 8.65129 11.3392 8.27927 11.5718 7.70227C11.5943 7.64153 11.6169 7.58838 11.6319 7.52765C11.6694 7.39858 11.6844 7.26192 11.6844 7.12526C11.6844 7.10249 11.6844 7.0873 11.6844 7.06452C11.6844 7.00379 11.6769 6.94305 11.6694 6.8899L11.6319 6.66214H12.4199L12.4424 6.83676C12.4499 6.90509 12.4574 6.98101 12.4574 7.04934C12.4574 7.07971 12.4574 7.10249 12.4574 7.12526C12.4574 7.17081 12.4574 7.21637 12.4499 7.26951C12.4499 7.31507 12.4424 7.36821 12.4349 7.41376C12.4274 7.48209 12.4124 7.55802 12.3974 7.62634C12.3824 7.69467 12.3599 7.7706 12.3373 7.83893C12.0597 8.78035 11.1891 9.42569 10.1984 9.42569ZM10.1834 9.03089C10.1909 9.03089 10.1909 9.03089 10.1834 9.03089C10.1909 9.03089 10.1909 9.03089 10.1834 9.03089ZM11.9396 7.86929C11.767 8.27927 11.4667 8.59814 11.099 8.80313C11.4667 8.59814 11.767 8.27168 11.9396 7.86929ZM8.46468 7.87689C8.6298 8.25649 8.89998 8.56018 9.23771 8.76517C8.89998 8.56777 8.6298 8.25649 8.46468 7.87689ZM12.0446 7.52765C12.0371 7.55042 12.0296 7.58079 12.0296 7.60357C12.0371 7.58079 12.0371 7.55802 12.0446 7.52765ZM8.35211 7.54283C8.35961 7.55802 8.35961 7.58079 8.36712 7.59598C8.35961 7.5732 8.35961 7.55802 8.35211 7.54283ZM12.0897 7.23914C12.0822 7.33784 12.0672 7.42895 12.0521 7.52765C12.0672 7.46691 12.0747 7.41376 12.0822 7.35303C12.0822 7.31507 12.0822 7.27711 12.0897 7.23914ZM8.32209 7.36062C8.32959 7.41376 8.3371 7.4745 8.35211 7.52765C8.3371 7.46691 8.32959 7.41376 8.32209 7.36062ZM8.30708 7.23914C8.30708 7.27711 8.31458 7.31507 8.31458 7.34543C8.31458 7.31507 8.31458 7.27711 8.30708 7.23914ZM12.0897 7.06452C12.0897 7.07971 12.0897 7.09489 12.0897 7.11767C12.0897 7.09489 12.0897 7.07971 12.0897 7.06452ZM8.30708 7.06452C8.30708 7.07971 8.30708 7.09489 8.30708 7.11767C8.30708 7.10249 8.30708 7.07971 8.30708 7.06452Z" fill="black"/>
<path d="M12.2698 6.85196H11.8795C11.7519 6.03201 11.0465 5.39427 10.1984 5.39427C9.35029 5.39427 8.64481 6.02442 8.51722 6.85196H8.12695C8.25454 5.81183 9.13264 5.00706 10.1984 5.00706C11.2641 5.00706 12.1422 5.81183 12.2698 6.85196Z" fill="black"/>
<path d="M12.4874 7.04935H11.7069L11.6844 6.88232C11.5718 6.14588 10.9339 5.59166 10.1984 5.59166C9.46287 5.59166 8.82493 6.14588 8.71235 6.88232L8.68984 7.04935H7.9093L7.93932 6.82918C8.08192 5.67517 9.05009 4.80966 10.1984 4.80966C11.3467 4.80966 12.3148 5.67517 12.4574 6.82918L12.4874 7.04935ZM12.0371 6.65456C11.8345 5.81183 11.0765 5.20445 10.1984 5.19686C10.6487 5.19686 11.0915 5.36389 11.4367 5.65998C11.7294 5.92571 11.9396 6.27495 12.0371 6.65456ZM8.35961 6.65456C8.44967 6.27495 8.65982 5.92571 8.96002 5.66758C9.30526 5.36389 9.74056 5.20445 10.1984 5.20445C9.32027 5.20445 8.56976 5.81183 8.35961 6.65456Z" fill="black"/>
<path d="M4.9297 2.3422C4.9297 2.27387 4.9222 2.21314 4.91469 2.14481H4.52443C4.53193 2.20554 4.53944 2.27387 4.53944 2.3422C4.53944 2.36498 4.53944 2.38776 4.53944 2.41053C4.53944 2.56997 4.51692 2.72181 4.47939 2.86606C4.46438 2.93439 4.44187 2.99513 4.41185 3.06346C4.15667 3.68602 3.54875 4.12636 2.84327 4.12636C2.13779 4.12636 1.52236 3.68602 1.27469 3.06346C1.25218 3.00272 1.22966 2.93439 1.20715 2.86606C1.16962 2.72181 1.1471 2.56997 1.1471 2.41053C1.1471 2.38776 1.1471 2.36498 1.1471 2.3422C1.1471 2.27387 1.15461 2.21314 1.16211 2.14481H0.771846C0.764341 2.21314 0.756836 2.27387 0.756836 2.3422C0.756836 2.36498 0.756836 2.38776 0.756836 2.41053C0.756836 2.45608 0.756836 2.49405 0.764341 2.5396C0.764341 2.58515 0.771846 2.6307 0.779351 2.66867C0.786857 2.73699 0.801867 2.79773 0.809372 2.86606C0.824382 2.93439 0.839393 2.99513 0.861908 3.06346C1.13209 3.90619 1.92014 4.52115 2.84327 4.52115C3.7664 4.52115 4.55445 3.90619 4.82463 3.06346C4.84715 3.00272 4.86216 2.93439 4.87717 2.86606C4.89218 2.80532 4.89968 2.73699 4.90719 2.66867C4.91469 2.62311 4.91469 2.58515 4.9222 2.5396C4.9222 2.49405 4.9297 2.45608 4.9297 2.41053C4.9297 2.38776 4.9297 2.36498 4.9297 2.3422Z" fill="black"/>
<path d="M2.84327 4.71855C1.85259 4.71855 0.981993 4.08081 0.674282 3.1242C0.651766 3.05587 0.629251 2.97994 0.61424 2.91161C0.59923 2.84329 0.58422 2.76736 0.576715 2.69903C0.56921 2.65348 0.56921 2.60793 0.561704 2.55478C0.561704 2.50923 0.554199 2.46368 0.554199 2.41812C0.554199 2.38776 0.554199 2.36498 0.554199 2.3422C0.554199 2.27387 0.561704 2.19795 0.56921 2.12962L0.591725 1.955H1.37977L1.34224 2.18277C1.33474 2.23591 1.32723 2.29665 1.32723 2.35739C1.32723 2.38016 1.32723 2.39535 1.32723 2.41812C1.32723 2.55478 1.34224 2.69144 1.37977 2.82051C1.39478 2.88125 1.41729 2.93439 1.43981 2.99513C1.67247 3.57213 2.22034 3.94415 2.82826 3.94415C3.44369 3.94415 3.98406 3.57213 4.21672 2.99513C4.23923 2.93439 4.26175 2.88125 4.27676 2.82051C4.31428 2.69144 4.32929 2.55478 4.32929 2.41812C4.32929 2.39535 4.32929 2.38016 4.32929 2.35739C4.32929 2.29665 4.32179 2.23591 4.31428 2.18277L4.27676 1.955H5.0648L5.08732 2.12962C5.09482 2.19795 5.10233 2.27387 5.10233 2.3422C5.10233 2.37257 5.10233 2.39535 5.10233 2.41812C5.10233 2.46368 5.10233 2.50923 5.09482 2.56238C5.09482 2.60793 5.08732 2.66107 5.07981 2.70663C5.0723 2.77496 5.05729 2.85088 5.04228 2.91921C5.02727 2.98754 5.00476 3.06346 4.98224 3.13179C4.70455 4.07322 3.83395 4.71855 2.84327 4.71855ZM2.82826 4.32376C2.83577 4.32376 2.83577 4.32376 2.82826 4.32376C2.83577 4.32376 2.83577 4.32376 2.82826 4.32376ZM4.58447 3.16216C4.41185 3.57213 4.11164 3.891 3.74389 4.09599C4.11164 3.891 4.41185 3.56454 4.58447 3.16216ZM1.10958 3.16975C1.27469 3.54936 1.54488 3.85304 1.88261 4.05803C1.54488 3.86064 1.27469 3.54936 1.10958 3.16975ZM4.68954 2.82051C4.68204 2.84329 4.67453 2.87365 4.67453 2.89643C4.68204 2.87365 4.68204 2.85088 4.68954 2.82051ZM0.997004 2.83569C1.00451 2.85088 1.00451 2.86606 1.01201 2.88884C1.00451 2.86606 1.00451 2.85088 0.997004 2.83569ZM4.73457 2.53201C4.72707 2.6307 4.71206 2.72181 4.69705 2.82051C4.71206 2.75977 4.71956 2.70663 4.72707 2.64589C4.72707 2.60793 4.72707 2.56997 4.73457 2.53201ZM0.966983 2.65348C0.974488 2.70663 0.981993 2.76736 0.997004 2.82051C0.981993 2.75977 0.974488 2.70663 0.966983 2.65348ZM0.951973 2.53201C0.951973 2.56997 0.959478 2.60793 0.959478 2.6383C0.959478 2.60793 0.959478 2.56997 0.951973 2.53201ZM4.73457 2.35739C4.73457 2.37257 4.73457 2.38776 4.73457 2.41053C4.73457 2.38776 4.73457 2.37257 4.73457 2.35739ZM0.951973 2.35739C0.951973 2.37257 0.951973 2.38776 0.951973 2.41053C0.951973 2.39535 0.951973 2.37257 0.951973 2.35739Z" fill="black"/>
<path d="M4.9147 2.14481H4.52443C4.39684 1.32485 3.69136 0.687112 2.84327 0.687112C1.99519 0.687112 1.28971 1.32485 1.16212 2.14481H0.771851C0.899438 1.10468 1.77754 0.299911 2.84327 0.299911C3.90901 0.299911 4.78711 1.10468 4.9147 2.14481Z" fill="black"/>
<path d="M5.13235 2.34221H4.35181L4.32929 2.17518C4.21672 1.43874 3.57878 0.884517 2.84327 0.884517C2.10777 0.884517 1.46983 1.43874 1.35725 2.17518L1.33474 2.34221H0.554199L0.58422 2.12204C0.726818 0.968031 1.69498 0.102524 2.84327 0.102524C3.99156 0.102524 4.95973 0.968031 5.10232 2.12204L5.13235 2.34221ZM4.68204 1.94742C4.47189 1.10469 3.72138 0.497316 2.84327 0.497316C3.29358 0.497316 3.73639 0.664344 4.08162 0.960438C4.37432 1.21857 4.58447 1.56781 4.68204 1.94742ZM1.00451 1.94742C1.09457 1.56781 1.30472 1.21857 1.60492 0.960438C1.95016 0.656752 2.38546 0.497316 2.84327 0.497316C1.96517 0.497316 1.21465 1.10469 1.00451 1.94742Z" fill="black"/>
<path d="M17.7108 9.47884C16.6226 9.47884 15.722 10.3292 15.6319 11.4148C15.6244 11.4756 15.6244 11.5287 15.6244 11.5895C15.6244 11.7033 15.6319 11.8248 15.6544 11.9387C15.8195 12.9409 16.6751 13.7001 17.7108 13.7001C18.8591 13.7001 19.7973 12.7511 19.7973 11.5895C19.7973 10.4279 18.8666 9.47884 17.7108 9.47884ZM17.7108 13.3053C16.8928 13.3053 16.2023 12.7131 16.0447 11.9311C16.0222 11.8172 16.0072 11.7033 16.0072 11.5819C16.0072 11.5211 16.0072 11.4604 16.0147 11.4072C16.1047 10.5417 16.8252 9.86604 17.7033 9.86604C18.5814 9.86604 19.3019 10.5417 19.392 11.4072C19.3995 11.468 19.3995 11.5211 19.3995 11.5819C19.3995 11.7033 19.3845 11.8172 19.362 11.9311C19.2194 12.7207 18.5364 13.3053 17.7108 13.3053Z" fill="black"/>
<path d="M17.711 13.8975C17.1706 13.8975 16.6452 13.7001 16.2324 13.3433C15.8272 12.9864 15.5495 12.5005 15.4669 11.9691C15.4444 11.8476 15.4369 11.7185 15.4369 11.5895C15.4369 11.5287 15.4369 11.4604 15.4444 11.3921C15.4894 10.8151 15.7521 10.2836 16.1724 9.89641C16.5927 9.50162 17.1406 9.28145 17.7185 9.28145C18.9718 9.28145 20 10.314 20 11.5895C19.9925 12.865 18.9718 13.8975 17.711 13.8975ZM15.8647 11.9843C16.0448 12.8725 16.8103 13.5027 17.7185 13.5027C16.8253 13.5027 16.0448 12.865 15.8647 11.9843ZM19.6023 11.5895C19.6023 11.7185 19.5872 11.8476 19.5647 11.9767C19.3846 12.865 18.6041 13.5027 17.711 13.5027C18.7617 13.5027 19.6023 12.6448 19.6023 11.5895ZM17.711 10.071C16.9379 10.071 16.2925 10.6556 16.2174 11.4376C16.2099 11.4908 16.2099 11.5439 16.2099 11.5971C16.2099 11.7033 16.2174 11.802 16.2399 11.9007C16.3825 12.6068 17.0055 13.1155 17.711 13.1155C18.4239 13.1155 19.0394 12.6068 19.182 11.9007C19.2045 11.802 19.212 11.6958 19.212 11.5971C19.212 11.5439 19.212 11.4908 19.2045 11.4376C19.1294 10.6556 18.484 10.071 17.711 10.071ZM15.8197 11.6047C15.8197 11.6654 15.8197 11.7261 15.8272 11.7793C15.8272 11.7185 15.8197 11.6578 15.8197 11.6047ZM15.8197 11.5971C15.8197 11.5971 15.8197 11.6047 15.8197 11.5971C15.8197 11.6047 15.8197 11.5971 15.8197 11.5971ZM15.8197 11.5895C15.8197 11.5895 15.8197 11.5971 15.8197 11.5895C15.8197 11.5971 15.8197 11.5895 15.8197 11.5895ZM19.4597 10.8606C19.5272 11.0276 19.5722 11.2099 19.5947 11.3921C19.6023 11.4604 19.6023 11.5211 19.6023 11.5895C19.6023 11.3313 19.5572 11.0884 19.4597 10.8606ZM17.7185 9.67624C18.0337 9.67624 18.3414 9.75976 18.6116 9.90401C18.3489 9.75976 18.0412 9.67624 17.7185 9.67624Z" fill="black"/>
<path d="M1.20703 2.49405C1.20703 2.60034 1.21453 2.71422 1.23705 2.81292H0.974365V2.28906H1.22204C1.21453 2.35739 1.20703 2.42572 1.20703 2.49405Z" fill="black"/>
<path d="M1.46977 3.01033H0.779297V2.09167H1.43975L1.40973 2.31185C1.40223 2.37258 1.40223 2.42573 1.40223 2.48647C1.40223 2.58517 1.40973 2.67627 1.43225 2.76738L1.46977 3.01033Z" fill="black"/>
<path d="M19.6097 2.28906V2.81292H4.5769C4.59942 2.70663 4.60693 2.60034 4.60693 2.49405C4.60693 2.42572 4.59942 2.35739 4.59191 2.28906H19.6097Z" fill="black"/>
<path d="M19.7973 3.01032H4.33667L4.3817 2.77496C4.39671 2.68386 4.41172 2.58516 4.41172 2.49405C4.41172 2.43331 4.41172 2.37258 4.40422 2.31943L4.3742 2.09926H19.7973V3.01032ZM4.79448 2.61553H19.4145V2.48646H4.80199V2.49405C4.80199 2.53201 4.79448 2.57756 4.79448 2.61553Z" fill="black"/>
<path d="M8.50229 7.11768C8.50229 7.27711 8.5248 7.42896 8.56233 7.57321H0.989624V7.04935H8.50229C8.50229 7.07212 8.50229 7.0949 8.50229 7.11768Z" fill="black"/>
<path d="M8.7499 7.52007C8.71238 7.391 8.69737 7.25434 8.69737 7.11769C8.69737 7.09491 8.69737 7.07972 8.69737 7.05695L8.70487 6.85196H0.794434V7.77061H8.81745L8.7499 7.52007ZM1.1847 7.37582V7.24675H8.3146C8.3146 7.2923 8.32211 7.33027 8.32961 7.37582H1.1847Z" fill="black"/>
<path d="M19.6173 7.04935V7.57321H11.8345C11.872 7.42896 11.8945 7.27711 11.8945 7.11768C11.8945 7.0949 11.8945 7.07212 11.8945 7.04935H19.6173Z" fill="black"/>
<path d="M11.6919 6.85196L11.6994 7.05695C11.6994 7.07972 11.6994 7.09491 11.6994 7.11769C11.6994 7.25434 11.6844 7.391 11.6469 7.52007L11.5793 7.77061H19.8125V6.85196H11.6919ZM19.4222 7.37582H12.0672C12.0747 7.33027 12.0747 7.2923 12.0822 7.24675H19.4222V7.37582Z" fill="black"/>
<path d="M16.015 11.5895C16.015 11.711 16.03 11.8248 16.0525 11.9387H0.989624V11.4149H16.0225C16.0225 11.4756 16.015 11.5287 16.015 11.5895Z" fill="black"/>
<path d="M16.2851 12.1361H0.794434V11.2175H16.24L16.2175 11.43C16.21 11.4832 16.21 11.5363 16.21 11.5895C16.21 11.6958 16.2175 11.7945 16.24 11.8932L16.2851 12.1361ZM1.1847 11.7413H15.8273C15.8273 11.6958 15.8198 11.6578 15.8198 11.6122H1.1847V11.7413Z" fill="black"/>
<path d="M19.6172 11.4149V11.9387H19.3771C19.3996 11.8248 19.4146 11.711 19.4146 11.5895C19.4146 11.5288 19.4146 11.468 19.4071 11.4149H19.6172Z" fill="black"/>
<path d="M19.8125 12.1361H19.1371L19.1821 11.9008C19.2046 11.8021 19.2121 11.6958 19.2121 11.5971C19.2121 11.5439 19.2121 11.4908 19.2046 11.4376L19.1821 11.2251H19.805V12.1361H19.8125Z" fill="black"/>
</svg>
